<svg width="400" height="400" viewBox="0 0 400 400" fill="none" xmlns="http://www.w3.org/2000/svg">
<g clip-path="url(#clip0_2001_2145)">
<path d="M392 0H8C3.58172 0 0 3.58171 0 7.99999V392C0 396.418 3.58171 400 7.99999 400H392C396.418 400 400 396.418 400 392V8C400 3.58172 396.418 0 392 0Z" fill="#09090B"/>
<path d="M200 95.1068C191.82 95.1068 183.86 96.0429 176.222 97.8177C137.385 106.816 106.816 137.385 97.8176 176.218C96.0428 183.86 95.1067 191.821 95.1067 200C95.1067 257.931 142.069 304.893 200 304.893C208.179 304.893 216.14 303.957 223.781 302.182C262.615 293.184 293.184 262.619 302.186 223.789C303.961 216.148 304.897 208.183 304.897 200C304.897 142.069 257.931 95.1068 200 95.1068ZM200 265.689C192.257 265.689 184.831 264.351 177.935 261.89C159.407 255.282 144.722 240.597 138.114 222.069C135.653 215.173 134.315 207.743 134.315 200C134.315 163.721 163.721 134.311 200 134.311C207.742 134.311 215.169 135.649 222.065 138.11C240.593 144.718 255.282 159.403 261.89 177.931C264.351 184.827 265.689 192.257 265.689 200C265.689 236.279 236.279 265.689 200 265.689Z" fill="url(#paint0_linear_2001_2145)"/>
<path d="M200 157.664C176.62 157.664 157.664 176.62 157.664 200C157.664 223.38 176.62 242.336 200 242.336C223.38 242.336 242.336 223.38 242.336 200C242.336 176.62 223.384 157.664 200 157.664ZM200 225.599C185.864 225.599 174.401 214.139 174.401 200C174.401 185.861 185.864 174.401 200 174.401C214.136 174.401 225.599 185.861 225.599 200C225.599 214.139 214.139 225.599 200 225.599Z" fill="#FEFCFE"/>
<path d="M213.877 122.94C217.886 128.455 212.002 135.047 205.205 134.514C203.488 134.38 201.752 134.311 200 134.311C163.721 134.311 134.315 163.721 134.315 200C134.315 201.753 134.384 203.49 134.518 205.209C135.051 212.006 128.459 217.89 122.944 213.881C120.208 211.892 117.592 209.664 115.124 207.197C106.743 198.816 101.127 188.719 98.2744 178.034C97.9568 176.844 97.9576 175.591 98.2572 174.396C107.626 137.036 137.036 107.626 174.4 98.2572C175.594 97.9577 176.848 97.9569 178.038 98.2746C188.719 101.127 198.816 106.744 207.196 115.124C209.662 117.59 211.889 120.205 213.877 122.94Z" fill="url(#paint1_linear_2001_2145)"/>
<path d="M301.729 221.973C302.047 223.164 302.046 224.417 301.746 225.612C292.374 262.968 262.964 292.374 225.604 301.743C224.409 302.042 223.156 302.043 221.966 301.725C211.285 298.873 201.188 293.256 192.807 284.876C190.341 282.41 188.114 279.795 186.127 277.061C182.117 271.547 188.001 264.954 194.798 265.486C196.514 265.621 198.249 265.689 200 265.689C236.279 265.689 265.689 236.279 265.689 200C265.689 198.248 265.62 196.512 265.486 194.795C264.953 187.997 271.546 182.113 277.061 186.123C279.795 188.111 282.41 190.338 284.876 192.804C293.256 201.184 298.877 211.288 301.729 221.973Z" fill="url(#paint2_linear_2001_2145)"/>
<path d="M148.115 273.841C160.239 273.841 170.067 264.013 170.067 251.889C170.067 239.765 160.239 229.937 148.115 229.937C135.991 229.937 126.163 239.765 126.163 251.889C126.163 264.013 135.991 273.841 148.115 273.841Z" fill="url(#paint3_linear_2001_2145)"/>
<path d="M252.08 169.876C264.204 169.876 274.032 160.048 274.032 147.924C274.032 135.8 264.204 125.972 252.08 125.972C239.956 125.972 230.128 135.8 230.128 147.924C230.128 160.048 239.956 169.876 252.08 169.876Z" fill="url(#paint4_linear_2001_2145)"/>
</g>
<defs>
<linearGradient id="paint0_linear_2001_2145" x1="273.166" y1="130.863" x2="129.112" y2="266.988" gradientUnits="userSpaceOnUse">
<stop stop-color="#F38856"/>
<stop offset="0.23" stop-color="#F0625C"/>
<stop offset="1" stop-color="#5C3DAB"/>
</linearGradient>
<linearGradient id="paint1_linear_2001_2145" x1="193.361" y1="112.889" x2="111.423" y2="194.387" gradientUnits="userSpaceOnUse">
<stop stop-color="#F67986"/>
<stop offset="1" stop-color="#8951BA"/>
</linearGradient>
<linearGradient id="paint2_linear_2001_2145" x1="287.075" y1="207.107" x2="205.137" y2="288.608" gradientUnits="userSpaceOnUse">
<stop stop-color="#F67986"/>
<stop offset="1" stop-color="#8951BA"/>
</linearGradient>
<linearGradient id="paint3_linear_2001_2145" x1="164.142" y1="236.891" x2="132.084" y2="266.886" gradientUnits="userSpaceOnUse">
<stop stop-color="#A267B9"/>
<stop offset="1" stop-color="#704BB4"/>
</linearGradient>
<linearGradient id="paint4_linear_2001_2145" x1="265.424" y1="135.434" x2="243.538" y2="155.916" gradientUnits="userSpaceOnUse">
<stop stop-color="#F7A8A5"/>
<stop offset="0.97" stop-color="#D074C4"/>
<stop offset="1" stop-color="#CF76A9"/>
</linearGradient>
<clipPath id="clip0_2001_2145">
<rect width="400" height="400" rx="64" fill="white"/>
</clipPath>
</defs>
</svg>
